<svg preserveAspectRatio="none" width="100%" height="100%" overflow="visible" style="display: block;" viewBox="0 0 20 20" fill="none" xmlns="http://www.w3.org/2000/svg">
<g id="SealCheck">
<g id="Vector">
</g>
<path id="Vector_2" d="M4.25469 15.7453C3.53594 15.0266 4.0125 13.5164 3.64688 12.632C3.26719 11.7188 1.875 10.9766 1.875 10C1.875 9.02344 3.26719 8.28125 3.64688 7.36797C4.0125 6.48437 3.53594 4.97344 4.25469 4.25469C4.97344 3.53594 6.48437 4.0125 7.36797 3.64688C8.28516 3.26719 9.02344 1.875 10 1.875C10.9766 1.875 11.7188 3.26719 12.632 3.64688C13.5164 4.0125 15.0266 3.53594 15.7453 4.25469C16.4641 4.97344 15.9875 6.48359 16.3531 7.36797C16.7328 8.28516 18.125 9.02344 18.125 10C18.125 10.9766 16.7328 11.7188 16.3531 12.632C15.9875 13.5164 16.4641 15.0266 15.7453 15.7453C15.0266 16.4641 13.5164 15.9875 12.632 16.3531C11.7188 16.7328 10.9766 18.125 10 18.125C9.02344 18.125 8.28125 16.7328 7.36797 16.3531C6.48437 15.9875 4.97344 16.4641 4.25469 15.7453Z" stroke="currentColor" stroke-width="1.25" stroke-linecap="round" stroke-linejoin="round"/>
<path id="Vector_3" d="M6.875 10.625L8.75 12.5L13.125 8.125" stroke="currentColor" stroke-width="1.25" stroke-linecap="round" stroke-linejoin="round"/>
</g>
</svg>
