<svg preserveAspectRatio="none" width="100%" height="100%" overflow="visible" style="display: block;" viewBox="0 0 20 20" fill="none" xmlns="http://www.w3.org/2000/svg">
<g id="EyeSlash">
<g id="Vector">
</g>
<path id="Vector_2" d="M3.75 3.125L16.25 16.875" stroke="currentColor" stroke-width="1.25" stroke-linecap="round" stroke-linejoin="round"/>
<path id="Vector_3" d="M12.1023 12.3125C11.489 12.8701 10.6793 13.1612 9.8514 13.1218C9.02345 13.0824 8.24508 12.7157 7.6875 12.1023C7.12992 11.489 6.83882 10.6793 6.87823 9.8514C6.91765 9.02345 7.28434 8.24508 7.89766 7.6875" stroke="currentColor" stroke-width="1.25" stroke-linecap="round" stroke-linejoin="round"/>
<path id="Vector_4" d="M10.5883 6.93047C11.2527 7.0577 11.8578 7.39706 12.3128 7.8976C12.7679 8.39813 13.0482 9.03279 13.1117 9.70625" stroke="currentColor" stroke-width="1.25" stroke-linecap="round" stroke-linejoin="round"/>
<path id="Vector_5" d="M16.2977 13.2109C18.0008 11.6859 18.75 10 18.75 10C18.75 10 16.25 4.375 10 4.375C9.45877 4.37426 8.91839 4.41816 8.38437 4.50625" stroke="currentColor" stroke-width="1.25" stroke-linecap="round" stroke-linejoin="round"/>
<path id="Vector_6" d="M5.78125 5.35938C2.59609 6.97187 1.25 10 1.25 10C1.25 10 3.75 15.625 10 15.625C11.4645 15.6365 12.9106 15.2991 14.2188 14.6406" stroke="currentColor" stroke-width="1.25" stroke-linecap="round" stroke-linejoin="round"/>
</g>
</svg>
