<svg preserveAspectRatio="none" width="100%" height="100%" overflow="visible" style="display: block;" viewBox="0 0 32 32" fill="none" xmlns="http://www.w3.org/2000/svg">
<g id="icon/expand more">
<rect width="32" height="32" rx="16" fill="var(--fill-0, black)" fill-opacity="0.3"/>
<path id="Vector" d="M16.0002 21.3459C15.8395 21.3459 15.6899 21.3202 15.5515 21.2689C15.413 21.2177 15.2814 21.1296 15.1566 21.0048L9.16433 15.0125C8.97971 14.8279 8.88527 14.5959 8.881 14.3164C8.87671 14.0369 8.97116 13.8006 9.16433 13.6074C9.35749 13.4143 9.59167 13.3177 9.86687 13.3177C10.1421 13.3177 10.3762 13.4143 10.5694 13.6074L16.0002 19.0382L21.431 13.6074C21.6156 13.4228 21.8476 13.3284 22.1271 13.3241C22.4066 13.3198 22.6429 13.4143 22.8361 13.6074C23.0292 13.8006 23.1258 14.0348 23.1258 14.31C23.1258 14.5852 23.0292 14.8194 22.8361 15.0125L16.8438 21.0048C16.719 21.1296 16.5874 21.2177 16.4489 21.2689C16.3105 21.3202 16.1609 21.3459 16.0002 21.3459Z" fill="var(--fill-0, white)"/>
</g>
</svg>
