<svg preserveAspectRatio="none" width="100%" height="100%" overflow="visible" style="display: block;" viewBox="0 0 14.4 14.4" fill="none" xmlns="http://www.w3.org/2000/svg">
<g id="Icon/plus">
<path id="Shape" fill-rule="evenodd" clip-rule="evenodd" d="M11.8668 6.53229H7.8668V2.53229C7.8668 2.16362 7.56813 1.86562 7.20013 1.86562C6.83213 1.86562 6.53346 2.16362 6.53346 2.53229V6.53229H2.53346C2.16546 6.53229 1.8668 6.83029 1.8668 7.19896C1.8668 7.56762 2.16546 7.86562 2.53346 7.86562H6.53346V11.8656C6.53346 12.2343 6.83213 12.5323 7.20013 12.5323C7.56813 12.5323 7.8668 12.2343 7.8668 11.8656V7.86562H11.8668C12.2348 7.86562 12.5335 7.56762 12.5335 7.19896C12.5335 6.83029 12.2348 6.53229 11.8668 6.53229" fill="var(--fill-0, #579F4F)"/>
</g>
</svg>
