<svg preserveAspectRatio="none" width="100%" height="100%" overflow="visible" style="display: block;" viewBox="0 0 20 20" fill="none" xmlns="http://www.w3.org/2000/svg">
<g id="Icon">
<path id="Vector" d="M12.8975 10.7417L14.16 17.8467C14.1741 17.9303 14.1624 18.0163 14.1264 18.0931C14.0903 18.1699 14.0317 18.2339 13.9583 18.2765C13.8849 18.3191 13.8002 18.3382 13.7157 18.3314C13.6311 18.3246 13.5506 18.2921 13.485 18.2383L10.5017 15.9992C10.3576 15.8916 10.1827 15.8334 10.0029 15.8334C9.82314 15.8334 9.64819 15.8916 9.50417 15.9992L6.51583 18.2375C6.45027 18.2912 6.36988 18.3236 6.28541 18.3305C6.20094 18.3373 6.11639 18.3182 6.04305 18.2757C5.96971 18.2333 5.91106 18.1694 5.87493 18.0928C5.8388 18.0161 5.82691 17.9303 5.84083 17.8467L7.1025 10.7417" stroke="var(--stroke-0, #FF3B3B)" stroke-width="1.66667" stroke-linecap="round" stroke-linejoin="round"/>
<path id="Vector_2" d="M10 11.6667C12.7614 11.6667 15 9.42809 15 6.66667C15 3.90524 12.7614 1.66667 10 1.66667C7.23858 1.66667 5 3.90524 5 6.66667C5 9.42809 7.23858 11.6667 10 11.6667Z" stroke="var(--stroke-0, #FF3B3B)" stroke-width="1.66667" stroke-linecap="round" stroke-linejoin="round"/>
</g>
</svg>
