<svg preserveAspectRatio="none" width="100%" height="100%" overflow="visible" style="display: block;" viewBox="0 0 20 20" fill="none" xmlns="http://www.w3.org/2000/svg">
<g id="Handshake">
<g id="Vector">
</g>
<path id="Vector_2" d="M15.625 11.875L12.5 15L7.5 13.75L3.125 10.625" stroke="var(--stroke-0, #FF3B3B)" stroke-width="1.25" stroke-linecap="round" stroke-linejoin="round"/>
<path id="Vector_3" d="M5.67812 5.51797L10 4.375L14.3219 5.51797" stroke="var(--stroke-0, #FF3B3B)" stroke-width="1.25" stroke-linecap="round" stroke-linejoin="round"/>
<path id="Vector_4" d="M2.68516 4.72031L0.691406 8.70938C0.61731 8.85754 0.605065 9.02905 0.657363 9.18624C0.70966 9.34343 0.822221 9.47342 0.970313 9.54766L3.125 10.625L5.67812 5.51797L3.52422 4.44141C3.45082 4.4046 3.37088 4.38261 3.28898 4.37671C3.20708 4.3708 3.12482 4.38109 3.04689 4.407C2.96897 4.4329 2.89692 4.4739 2.83485 4.52766C2.77278 4.58142 2.72191 4.64688 2.68516 4.72031Z" stroke="var(--stroke-0, #FF3B3B)" stroke-width="1.25" stroke-linecap="round" stroke-linejoin="round"/>
<path id="Vector_5" d="M16.875 10.625L19.0297 9.54766C19.1778 9.47342 19.2903 9.34343 19.3426 9.18624C19.3949 9.02905 19.3827 8.85754 19.3086 8.70938L17.3148 4.72031C17.2781 4.64688 17.2272 4.58142 17.1652 4.52766C17.1031 4.4739 17.031 4.4329 16.9531 4.407C16.8752 4.38109 16.7929 4.3708 16.711 4.37671C16.6291 4.38261 16.5492 4.4046 16.4758 4.44141L14.3219 5.51797L16.875 10.625Z" stroke="var(--stroke-0, #FF3B3B)" stroke-width="1.25" stroke-linecap="round" stroke-linejoin="round"/>
<path id="Vector_6" d="M14.375 5.625H11.25L7.68281 9.08516C7.6165 9.15144 7.56595 9.23179 7.5349 9.32026C7.50386 9.40872 7.49311 9.50305 7.50347 9.59623C7.51382 9.68941 7.54501 9.77908 7.59471 9.85857C7.64442 9.93807 7.71138 10.0054 7.79063 10.0555C9.15859 10.9297 11.0156 10.8695 12.5 9.375L15.625 11.875L16.875 10.625" stroke="var(--stroke-0, #FF3B3B)" stroke-width="1.25" stroke-linecap="round" stroke-linejoin="round"/>
<path id="Vector_7" d="M9.69219 16.875L6.43281 16.0602L4.375 14.5898" stroke="var(--stroke-0, #FF3B3B)" stroke-width="1.25" stroke-linecap="round" stroke-linejoin="round"/>
</g>
</svg>
